<?xml version="1.0" encoding="utf-8"?>
<!-- Generator: Adobe Illustrator 18.1.0, SVG Export Plug-In . SVG Version: 6.00 Build 0)  -->
<!DOCTYPE svg PUBLIC "-//W3C//DTD SVG 1.1//EN" "http://www.w3.org/Graphics/SVG/1.1/DTD/svg11.dtd">
<svg version="1.1" id="Layer_1" xmlns="http://www.w3.org/2000/svg" xmlns:xlink="http://www.w3.org/1999/xlink" x="0px" y="0px"
	 viewBox="0 0 300 300" enable-background="new 0 0 300 300" xml:space="preserve">
<g>
	<g>
		<path fill="#454D59" d="M97.9,74c-42.2,0-76.4,34-76.4,76c0,42,34.2,76,76.4,76c42.2,0,76.4-34,76.4-76
			C174.4,108,140.2,74,97.9,74z M97.9,214.5c-35.8,0-64.9-28.9-64.9-64.5c0-35.6,29.1-64.5,64.9-64.5c35.8,0,64.9,28.9,64.9,64.5
			C162.8,185.6,133.7,214.5,97.9,214.5z M105.9,145.2h-3.2v-22.2h20.1v-9.5h-20.1V97.7h-9.6v15.8H90c-8.3,0-20.7,5.5-20.7,20.6
			c0,8.3,5.5,20.6,20.7,20.6h3.2v22.2H73.1v9.5h20.1v15.8h9.6v-15.8h3.2c8.3,0,20.7-5.5,20.7-20.6
			C126.6,150.7,114.2,145.2,105.9,145.2z M93.2,145.2H90c-10.5,0-11.1-9.3-11.1-11.1c0-10.4,9.3-11.1,11.1-11.1h3.2V145.2z
			 M105.9,176.9h-3.2v-22.2h3.2c1.9,0,11.2,0.7,11.2,11.1C117.1,176.2,107.7,176.9,105.9,176.9z M198.3,97.7V152l33.4,33.3l6.8-6.7
			L207.8,148V97.7H198.3z M203.1,74c-16.9,0-32.5,5.5-45.1,14.8c2.3,2.2,6,6.3,8,8.7c10.6-7.5,23.5-11.9,37.5-11.9
			c35.8,0,64.9,28.9,64.9,64.5s-29.1,64.5-64.9,64.5c-14,0-26.9-4.4-37.5-11.9c-2,2.4-5.7,6.4-8,8.7c12.7,9.2,28.2,14.8,45.1,14.8
			c42.2,0,76.4-34,76.4-76C279.5,108,245.3,74,203.1,74z"/>
	</g>
</g>
</svg>
