<?xml version="1.0" encoding="utf-8"?>
<!-- Generator: Adobe Illustrator 18.1.0, SVG Export Plug-In . SVG Version: 6.00 Build 0)  -->
<!DOCTYPE svg PUBLIC "-//W3C//DTD SVG 1.1//EN" "http://www.w3.org/Graphics/SVG/1.1/DTD/svg11.dtd">
<svg version="1.1" id="Layer_1" xmlns="http://www.w3.org/2000/svg" xmlns:xlink="http://www.w3.org/1999/xlink" x="0px" y="0px"
	 viewBox="0 0 300 300" enable-background="new 0 0 300 300" xml:space="preserve">
<g>
	<g>
		<path fill="#454D59" d="M244.1,164.6v-31.2l-21.3-6.3c-1.4-4.6-3.1-9-5.3-13.2l11-19.8l-22-22.1l-19.8,10.9
			c-4.2-2.2-8.6-3.7-13.2-5.1l-6.3-21.3h-31.2l-6.3,21.3c-4.6,1.4-9,3.1-13.2,5.3l-19.8-11l-22.1,22l10.9,19.8
			c-2.2,4.2-4.7,8.6-6.1,13.2l-22.3,6.3v31.2l22.3,6.3c1.4,4.6,3.5,9,5.8,13.2L74.3,204l22.1,22.1l19.9-10.9
			c4.2,2.2,8.6,4.7,13.2,6.1l6.4,22.3h31.2l6.3-22.3c4.6-1.4,9-3.5,13.2-5.8l19.8,10.7l22.1-22.1l-10.9-19.9
			c2.2-4.2,3.7-8.6,5.1-13.2L244.1,164.6z M151.5,207c-32,0-58-26-58-58s26-58,58-58c32,0,58,26,58,58S183.5,207,151.5,207z
			 M150.2,125.3c-12.8,0-23.3,10.4-23.3,23.3c0,7.1,3.3,12.4,6.3,17.1c2.2,3.5,4.3,6.9,4.3,10.2v1.5c0,1.1,0.9,2.1,2.1,2.1h21.6
			c1.1,0,2.1-0.9,2.1-2.1v-1.5c0-3.7,2.2-7.4,4.5-11.4c2.8-4.8,5.7-9.8,5.7-15.8C173.5,135.8,163,125.3,150.2,125.3z M164.2,162.4
			c-2.5,4.3-4.9,8.4-5,13h-17.5c-0.2-4.3-2.6-8.1-4.9-11.8c-2.8-4.4-5.6-9-5.6-14.9c0-10.5,8.6-19.1,19.1-19.1
			c10.5,0,19.1,8.6,19.1,19.1C169.3,153.5,166.7,158,164.2,162.4z M159.7,184h-18.6c-1.1,0-2.1,0.9-2.1,2.1c0,1.1,0.9,2.1,2.1,2.1
			h18.6c1.1,0,2.1-0.9,2.1-2.1C161.8,184.9,160.8,184,159.7,184z M156,192.3h-11.3c-1.1,0-2.1,0.9-2.1,2.1s0.9,2.1,2.1,2.1H156
			c1.1,0,2.1-0.9,2.1-2.1S157.2,192.3,156,192.3z M150.2,118.1c1.1,0,2.1-0.9,2.1-2.1v-10.4c0-1.1-0.9-2.1-2.1-2.1
			c-1.1,0-2.1,0.9-2.1,2.1V116C148.2,117.2,149.1,118.1,150.2,118.1z M173.7,127.2c0.5,0,1.1-0.2,1.5-0.6l7.6-7.6
			c0.8-0.8,0.8-2.1,0-2.9c-0.8-0.8-2.1-0.8-2.9,0l-7.6,7.6c-0.8,0.8-0.8,2.1,0,2.9C172.6,127,173.2,127.2,173.7,127.2z M125.6,170.3
			l-7.6,8c-0.8,0.8-0.8,2.1,0.1,2.9c0.4,0.4,0.9,0.6,1.4,0.6c0.5,0,1.1-0.2,1.5-0.6l7.6-8c0.8-0.8,0.8-2.1-0.1-2.9
			C127.7,169.4,126.4,169.4,125.6,170.3z M181.3,148.6c0,1.1,0.9,2.1,2.1,2.1h10c1.1,0,2.1-0.9,2.1-2.1c0-1.1-0.9-2.1-2.1-2.1h-10
			C182.2,146.5,181.3,147.4,181.3,148.6z M119.5,148.6c0-1.1-0.9-2.1-2.1-2.1h-9.8c-1.1,0-2.1,0.9-2.1,2.1c0,1.1,0.9,2.1,2.1,2.1
			h9.8C118.6,150.6,119.5,149.7,119.5,148.6z M125.5,126.8c0.4,0.4,0.9,0.6,1.5,0.6c0.5,0,1.1-0.2,1.5-0.6c0.8-0.8,0.8-2.1,0-2.9
			l-7.3-7.3c-0.8-0.8-2.1-0.8-2.9,0c-0.8,0.8-0.8,2.1,0,2.9L125.5,126.8z M175.3,170.4c-0.8-0.8-2.1-0.8-2.9,0
			c-0.8,0.8-0.8,2.1,0,2.9l7.3,7.3c0.4,0.4,0.9,0.6,1.5,0.6c0.5,0,1.1-0.2,1.5-0.6c0.8-0.8,0.8-2.1,0-2.9L175.3,170.4z M140.2,138.3
			c-5.5,5.5-5.5,14.5,0,20c0.4,0.4,0.9,0.6,1.5,0.6c0.5,0,1.1-0.2,1.5-0.6c0.8-0.8,0.8-2.1,0-2.9c-3.9-3.9-3.9-10.3,0-14.2
			c3.9-3.9,10.3-3.9,14.2,0c0.8,0.8,2.1,0.8,2.9,0c0.8-0.8,0.8-2.1,0-2.9C154.7,132.8,145.8,132.8,140.2,138.3z"/>
	</g>
</g>
</svg>
